<?xml version="1.0" encoding="UTF-8" standalone="no"?>
<!-- Created with Inkscape (http://www.inkscape.org/) -->

<svg
   width="34.035515mm"
   height="32.198063mm"
   viewBox="0 0 34.035515 32.198063"
   version="1.1"
   id="svg5"
   xml:space="preserve"
   xmlns:inkscape="http://www.inkscape.org/namespaces/inkscape"
   xmlns:sodipodi="http://sodipodi.sourceforge.net/DTD/sodipodi-0.dtd"
   xmlns="http://www.w3.org/2000/svg"
   xmlns:svg="http://www.w3.org/2000/svg"><sodipodi:namedview
     id="namedview7"
     pagecolor="#ffffff"
     bordercolor="#000000"
     borderopacity="0.25"
     inkscape:showpageshadow="2"
     inkscape:pageopacity="0.0"
     inkscape:pagecheckerboard="0"
     inkscape:deskcolor="#d1d1d1"
     inkscape:document-units="mm"
     showgrid="false" /><defs
     id="defs2" /><g
     inkscape:label="Capa 1"
     inkscape:groupmode="layer"
     id="layer1"
     transform="translate(-118.80078,-37.19987)"><path
       style="fill:#000000;stroke-width:0.0559423"
       d="m 152.8362,48.083148 c -0.0104,0.01127 -0.62099,1.225856 -1.35688,2.699081 l -1.33798,2.67859 1.24998,2.704847 c 0.68749,1.487666 1.24974,2.720314 1.24945,2.739217 -2.9e-4,0.0189 -0.86788,0.02063 -1.92798,0.0038 l -1.92744,-0.03053 -1.03993,-1.491899 c -0.57197,-0.820545 -1.08083,-1.540901 -1.13081,-1.600792 -0.0764,-0.09151 -0.77828,-0.106005 -4.39756,-0.09079 -2.36867,0.01 -4.31181,0.03619 -4.31809,0.05829 -0.006,0.02211 0.66668,3.101269 1.49546,6.842583 l 1.50688,6.80239 -2.12005,-0.03238 c -1.16603,-0.01781 -2.14352,-0.05659 -2.17222,-0.08619 -0.0287,-0.0296 -1.51434,-3.081107 -3.30145,-6.781134 l -3.2493,-6.727323 -0.84214,-0.0048 c -0.46317,-0.0026 -2.4274,0.0042 -4.36494,0.01523 -2.14874,0.01222 -3.66704,-0.01057 -3.8926,-0.05843 -0.93927,-0.199311 -1.75752,-0.969976 -2.05689,-1.937252 -0.19957,-0.64484 -0.0976,-1.492456 0.25627,-2.131079 0.16058,-0.28978 0.26787,-0.415922 0.60229,-0.70818 0.45439,-0.3971 0.81102,-0.575886 1.32971,-0.66662 0.24157,-0.04226 5.58751,0.107608 8.7765,0.246038 l 0.26809,0.01164 3.45826,-6.627645 c 1.90204,-3.645205 3.48289,-6.65153 3.513,-6.680722 0.0301,-0.02919 1.00897,-0.03801 2.17524,-0.0196 l 2.12049,0.03347 -1.71729,6.754768 c -0.94451,3.715123 -1.71281,6.771757 -1.70734,6.792521 0.005,0.02076 1.9466,0.106242 4.3136,0.189953 3.80775,0.134663 4.31554,0.138747 4.40692,0.03545 0.0568,-0.06421 0.58808,-0.768536 1.18061,-1.56516 l 1.07732,-1.448408 1.94986,0.03028 c 1.07242,0.01665 1.94136,0.0395 1.93096,0.05077 z"
       id="path8214" /></g></svg>
