<?xml version="1.0" encoding="UTF-8" standalone="no"?>
<!-- Created with Inkscape (http://www.inkscape.org/) -->

<svg
   width="210mm"
   height="297mm"
   viewBox="0 0 210 297"
   version="1.1"
   id="svg1"
   xml:space="preserve"
   inkscape:export-filename="Banco.svg"
   inkscape:export-xdpi="96"
   inkscape:export-ydpi="96"
   xmlns:inkscape="http://www.inkscape.org/namespaces/inkscape"
   xmlns:sodipodi="http://sodipodi.sourceforge.net/DTD/sodipodi-0.dtd"
   xmlns="http://www.w3.org/2000/svg"
   xmlns:svg="http://www.w3.org/2000/svg"><sodipodi:namedview
     id="namedview1"
     pagecolor="#ffffff"
     bordercolor="#000000"
     borderopacity="0.25"
     inkscape:showpageshadow="2"
     inkscape:pageopacity="0.0"
     inkscape:pagecheckerboard="0"
     inkscape:deskcolor="#d1d1d1"
     inkscape:document-units="mm"
     inkscape:zoom="0.70110129"
     inkscape:cx="396.51902"
     inkscape:cy="561.25984"
     inkscape:window-width="1920"
     inkscape:window-height="1001"
     inkscape:window-x="-9"
     inkscape:window-y="-9"
     inkscape:window-maximized="1"
     inkscape:current-layer="layer1" /><defs
     id="defs1" /><g
     inkscape:label="Capa 1"
     inkscape:groupmode="layer"
     id="layer1"><path
       style="fill:#315762;fill-opacity:1"
       d="m 59.713881,188.9752 c -0.370414,-0.37041 -0.410776,-1.64474 -0.349628,-11.0386 l 0.06913,-10.61985 0.661458,-0.33458 c 0.527578,-0.26686 13.112265,-0.33458 62.177079,-0.33458 49.06481,0 61.6495,0.0677 62.17708,0.33458 l 0.66146,0.33458 0.0691,10.61985 c 0.0611,9.39386 0.0208,10.66819 -0.34963,11.0386 -0.37958,0.37958 -6.23279,0.41876 -62.55804,0.41876 -56.325248,0 -62.178462,-0.0392 -62.558038,-0.41876 z m 9.905958,-51.0427 v -25.79687 h 10.31875 10.318752 v 25.79687 25.79687 H 79.938589 69.619839 Z m 84.666661,0 v -25.79687 h 10.31875 10.31875 v 25.79687 25.79687 H 164.60525 154.2865 Z m -35.32187,24.83003 c -10.14296,-1.62347 -18.01432,-8.54914 -20.853119,-18.34774 -0.7989,-2.75756 -0.83807,-9.76775 -0.0702,-12.56771 1.30255,-4.74969 3.557649,-8.54483 7.095769,-11.94157 7.97086,-7.65234 19.82885,-9.09969 29.55545,-3.60745 4.22032,2.38305 8.74575,7.44566 10.50867,11.75609 1.40292,3.43021 1.72562,4.95785 1.86862,8.84594 0.10599,2.88208 0.0357,4.23547 -0.30924,5.95312 -1.86848,9.30449 -9.10161,16.89058 -18.40322,19.30128 -2.2101,0.57279 -7.48111,0.91401 -9.39271,0.60804 z m 4.55413,-7.7644 c 0.18307,-0.36381 0.33461,-1.26769 0.33676,-2.00865 l 0.004,-1.34718 1.10372,-0.33068 c 1.66672,-0.49936 4.02282,-2.97023 4.5613,-4.7835 0.53077,-1.78728 0.53077,-2.96854 0,-4.75583 -0.53848,-1.81326 -2.89458,-4.28413 -4.5613,-4.78349 l -1.10372,-0.33068 v -4.73558 -4.73558 l 0.82709,0.47798 c 1.1008,0.63615 2.01821,2.06475 2.24428,3.49479 0.3041,1.92358 1.43829,2.65999 2.48488,1.6134 0.63877,-0.63877 0.66774,-1.554 0.10877,-3.43625 -0.5262,-1.77191 -2.83538,-4.19858 -4.51181,-4.74137 l -1.09575,-0.35478 -0.10945,-1.71892 c -0.11256,-1.76772 -0.53958,-2.44868 -1.53551,-2.44868 -0.99594,0 -1.42295,0.68096 -1.53551,2.44868 l -0.10945,1.71892 -1.09575,0.35478 c -1.67643,0.54279 -3.98561,2.96946 -4.51181,4.74137 -0.56199,1.89243 -0.52971,3.38882 0.11001,5.09861 0.682,1.82282 2.58382,3.75657 4.2908,4.36284 l 1.26421,0.449 v 4.72638 4.72638 l -0.8599,-0.53233 c -1.11229,-0.68859 -1.99723,-1.97459 -2.19321,-3.18722 -0.28937,-1.79044 -0.55258,-2.15325 -1.56212,-2.15325 -1.50227,0 -1.81814,1.11353 -1.04979,3.70083 0.53335,1.79601 2.89548,4.28441 4.5326,4.7749 l 1.07501,0.32208 0.10563,1.65883 c 0.0581,0.91236 0.26923,1.85597 0.46919,2.0969 0.54737,0.65954 1.90532,0.43524 2.31693,-0.3827 z m 0.34066,-10.84726 v -4.52849 l 0.82709,0.47798 c 0.45491,0.26288 1.11994,0.91595 1.47785,1.45124 1.6371,2.44846 0.80636,5.36913 -1.97421,6.94081 -0.25898,0.14639 -0.33073,-0.79544 -0.33073,-4.34154 z m -4.26035,-8.53561 c -1.29784,-0.86248 -2.15239,-2.65493 -2.01412,-4.22469 0.12997,-1.47562 1.08314,-3.03837 2.27237,-3.72563 l 0.8271,-0.47798 v 4.51287 c 0,2.48209 -0.0419,4.51288 -0.0932,4.51288 -0.0512,0 -0.49772,-0.26885 -0.99218,-0.59745 z M 59.889128,108.81333 c -0.574237,-0.40221 -0.588038,-0.53572 -0.588038,-5.68854 v -5.276661 h 62.97083 62.97083 v 5.276661 c 0,5.15282 -0.0138,5.28633 -0.58804,5.68854 -0.52814,0.36993 -6.88193,0.41188 -62.38279,0.41188 -55.500857,0 -61.854647,-0.0419 -62.382792,-0.41188 z M 59.305141,90.241359 c 0.0022,-2.583 0.10375,-4.85359 0.225604,-5.04578 0.282063,-0.44485 -1.426851,0.16159 32.853666,-11.65867 16.085779,-5.54654 29.535159,-10.08461 29.887509,-10.08461 0.35235,0 13.80173,4.53807 29.88751,10.08461 34.28051,11.82026 32.5716,11.21382 32.85366,11.65867 0.12186,0.19219 0.22338,2.46278 0.22561,5.04578 l 0.004,4.69635 H 122.27192 59.30109 Z"
       id="path4" /></g></svg>
