<?xml version="1.0" encoding="UTF-8" standalone="no"?>
<!-- Created with Inkscape (http://www.inkscape.org/) -->

<svg
   width="27.304741mm"
   height="26.940445mm"
   viewBox="0 0 27.304741 26.940445"
   version="1.1"
   id="svg5"
   xml:space="preserve"
   xmlns:inkscape="http://www.inkscape.org/namespaces/inkscape"
   xmlns:sodipodi="http://sodipodi.sourceforge.net/DTD/sodipodi-0.dtd"
   xmlns="http://www.w3.org/2000/svg"
   xmlns:svg="http://www.w3.org/2000/svg"><sodipodi:namedview
     id="namedview7"
     pagecolor="#ffffff"
     bordercolor="#000000"
     borderopacity="0.25"
     inkscape:showpageshadow="2"
     inkscape:pageopacity="0.0"
     inkscape:pagecheckerboard="0"
     inkscape:deskcolor="#d1d1d1"
     inkscape:document-units="mm"
     showgrid="false" /><defs
     id="defs2" /><g
     inkscape:label="Capa 1"
     inkscape:groupmode="layer"
     id="layer1"
     transform="translate(-61.414842,-43.942366)"><path
       style="fill:#000000;stroke-width:0.0583449"
       d="m 63.609555,70.837611 c -0.385146,-0.091 -1.038862,-0.47368 -1.351287,-0.79113 -0.331344,-0.33668 -0.609782,-0.81835 -0.751008,-1.29915 -0.08364,-0.28476 -0.09301,-1.3381 -0.09239,-10.3854 5.74e-4,-8.20263 0.01511,-10.12262 0.07847,-10.36052 0.266803,-1.00177 0.996867,-1.77733 1.950264,-2.07181 0.331524,-0.1024 0.543438,-0.11583 1.827487,-0.11583 h 1.452478 l 3.52e-4,-0.39382 c 5.96e-4,-0.72034 0.213545,-1.15709 0.663868,-1.36159 0.449552,-0.20416 0.906763,-0.1317 1.251164,0.19826 0.280144,0.26843 0.360071,0.50556 0.360071,1.06835 v 0.4888 h 2.479659 2.47966 v -0.54285 c 0,-0.4982 0.01385,-0.5647 0.168417,-0.80842 0.455143,-0.71769 1.560551,-0.67045 1.92493,0.0823 0.09699,0.20035 0.12376,0.36525 0.12376,0.76233 v 0.50668 h 2.47966 2.479659 v -0.49825 c 0,-0.55098 0.09147,-0.80715 0.388485,-1.08793 0.594971,-0.56248 1.599645,-0.25095 1.822567,0.56515 0.03506,0.12836 0.06389,0.4106 0.06407,0.62721 l 2.2e-4,0.39382 h 1.452477 c 1.296474,0 1.493808,0.0128 1.837291,0.11886 0.856818,0.26464 1.599296,1.00709 1.872725,1.87265 l 0.146895,0.465 v 10.04923 c 0,10.84714 0.01367,10.34442 -0.298101,10.96529 -0.327539,0.65227 -0.966613,1.22313 -1.656454,1.47964 -0.280347,0.10425 -0.733201,0.10883 -11.61064,0.1175 -6.671168,0.005 -11.41169,-0.0129 -11.544854,-0.0443 z m 22.717909,-1.48763 c 0.176492,-0.0996 0.405551,-0.29105 0.509022,-0.42557 0.38378,-0.49894 0.366152,-0.12173 0.366152,-7.83485 v -6.99081 H 75.066892 62.931146 v 6.99081 c 0,7.65763 -0.01506,7.31549 0.343916,7.81105 0.180764,0.24954 0.470741,0.45538 0.816114,0.57932 0.170654,0.0612 2.28931,0.0734 11.063233,0.0634 l 10.852157,-0.0123 z M 65.02876,68.203441 c -0.394715,-0.266 -0.434783,-0.41289 -0.434783,-1.59396 0,-1.04408 0.0015,-1.05678 0.155241,-1.28906 0.269086,-0.40661 0.40001,-0.43697 1.796729,-0.41654 l 1.220432,0.0179 0.183942,0.17503 c 0.355912,0.33868 0.3778,0.42675 0.377033,1.51697 -7.94e-4,1.1176 -0.06029,1.33457 -0.436006,1.5899 -0.185318,0.12594 -0.243487,0.13127 -1.430334,0.13127 -1.186918,0 -1.245082,-0.005 -1.432254,-0.13147 z m 5.746873,0.0155 c -0.09787,-0.0627 -0.237333,-0.21971 -0.309922,-0.34887 -0.125974,-0.22414 -0.131152,-0.28377 -0.113783,-1.31035 0.02018,-1.19266 0.03767,-1.25169 0.45519,-1.53585 0.184692,-0.1257 0.244192,-0.13127 1.400872,-0.13127 1.15658,0 1.216424,0.006 1.406236,0.13174 0.109037,0.0725 0.257324,0.24869 0.329526,0.39161 0.120082,0.2377 0.131166,0.33965 0.129994,1.1956 -0.0015,1.06392 -0.06411,1.2976 -0.420875,1.56972 l -0.201479,0.15368 -1.248909,-8.9e-4 c -1.138671,-8.8e-4 -1.264615,-0.011 -1.42685,-0.11502 z m 5.837399,0.0603 c -0.168993,-0.0699 -0.360235,-0.29301 -0.463975,-0.54129 -0.06859,-0.16417 -0.0903,-0.43802 -0.0903,-1.13915 0,-0.84133 0.01162,-0.94604 0.131275,-1.18289 0.0722,-0.14292 0.220488,-0.31915 0.329526,-0.39161 0.189812,-0.12614 0.249656,-0.13174 1.406237,-0.13174 1.156678,0 1.216178,0.006 1.400872,0.13127 0.414535,0.28213 0.43499,0.34896 0.455463,1.48786 0.02159,1.20065 -0.03325,1.43821 -0.387516,1.67894 -0.209704,0.1425 -0.227425,0.14423 -1.438604,0.14058 -0.674458,-0.002 -1.278798,-0.0254 -1.342977,-0.052 z m -11.435606,-4.92766 c -0.225465,-0.10021 -0.408848,-0.30137 -0.52232,-0.57294 -0.06837,-0.16364 -0.08999,-0.43264 -0.08902,-1.10776 0.0014,-0.96584 0.06125,-1.21589 0.355678,-1.48578 0.241342,-0.22123 0.42852,-0.25185 1.539251,-0.25185 1.11125,0 1.299779,0.0309 1.537098,0.25185 0.267519,0.24908 0.313156,0.42382 0.34495,1.32082 0.0429,1.21051 -0.114493,1.66514 -0.646016,1.86597 -0.248103,0.0937 -2.300234,0.0772 -2.51962,-0.0203 z m 5.80532,0.0403 c -0.204313,-0.0768 -0.418791,-0.27461 -0.526425,-0.48559 -0.101598,-0.19915 -0.115369,-0.34509 -0.115369,-1.22266 0,-1.11972 0.05401,-1.32274 0.42168,-1.58498 0.185546,-0.13234 0.225692,-0.13619 1.42046,-0.13619 1.215456,0 1.231969,0.002 1.443771,0.14586 0.378389,0.25761 0.418992,0.41351 0.418992,1.60884 0,1.02727 -0.0037,1.06002 -0.14486,1.26589 -0.284171,0.41457 -0.42501,0.45153 -1.700949,0.44632 -0.62138,-0.003 -1.169165,-0.0194 -1.2173,-0.0375 z m 5.630286,-0.0725 c -0.128358,-0.065 -0.299018,-0.21478 -0.379242,-0.33294 -0.142638,-0.21011 -0.145862,-0.2388 -0.145862,-1.29851 0,-1.02764 0.0069,-1.09475 0.133476,-1.29831 0.07969,-0.12815 0.236923,-0.26473 0.39017,-0.33892 0.239977,-0.11617 0.331983,-0.12309 1.412665,-0.10624 1.102983,0.0172 1.164723,0.0243 1.346911,0.15421 0.367667,0.26224 0.42168,0.46526 0.42168,1.58498 0,1.11973 -0.05401,1.32275 -0.42168,1.58499 -0.182592,0.13023 -0.241968,0.1369 -1.35784,0.15251 -1.074425,0.015 -1.185394,0.007 -1.400278,-0.10177 z m 5.769096,0.0308 c -0.100148,-0.0436 -0.25768,-0.17828 -0.35007,-0.2993 l -0.167982,-0.22005 -0.01793,-1.11429 c -0.01742,-1.0824 -0.01407,-1.11995 0.116688,-1.31213 0.288378,-0.42382 0.342682,-0.4399 1.553524,-0.46029 1.258195,-0.0212 1.399745,-0.003 1.650783,0.20788 0.33363,0.28073 0.399147,0.52191 0.400223,1.4733 4.41e-4,0.4653 -0.02616,0.94364 -0.0593,1.06298 -0.07725,0.27813 -0.318858,0.56466 -0.561699,0.66613 -0.267564,0.11179 -2.305377,0.10843 -2.564241,-0.004 z m -17.283512,-4.97283 c -0.107525,-0.0539 -0.265056,-0.20305 -0.35007,-0.33142 -0.147966,-0.22341 -0.155404,-0.2724 -0.174102,-1.14674 -0.02692,-1.259 0.07842,-1.57846 0.598396,-1.81462 0.203076,-0.0922 0.39227,-0.10827 1.290398,-0.10936 0.97686,-0.001 1.071108,0.008 1.31252,0.12999 0.171373,0.0865 0.304622,0.21088 0.390645,0.36466 0.121425,0.21706 0.130624,0.30602 0.131517,1.2719 0.0011,1.13434 -0.0171,1.21417 -0.347602,1.52866 l -0.183945,0.17503 -1.236128,0.015 c -1.061369,0.0129 -1.263769,10e-4 -1.431629,-0.0831 z m 5.709139,-0.0323 c -0.110811,-0.0747 -0.261173,-0.22436 -0.334138,-0.33264 -0.125762,-0.18661 -0.132665,-0.2514 -0.132665,-1.24508 0,-0.97359 0.0092,-1.06457 0.129054,-1.27784 0.07098,-0.12629 0.221947,-0.2874 0.335483,-0.35802 0.195263,-0.12144 0.271383,-0.12839 1.407081,-0.12839 h 1.200649 l 0.220565,0.16826 c 0.376957,0.28757 0.43849,0.50915 0.439962,1.58431 0.0012,0.85681 -0.0098,0.95742 -0.129994,1.19266 -0.245981,0.48139 -0.289798,0.49468 -1.697453,0.51482 -1.212751,0.0173 -1.241031,0.015 -1.438544,-0.11808 z m 5.711802,-0.002 c -0.109038,-0.0725 -0.257324,-0.24868 -0.329526,-0.3916 -0.120082,-0.2377 -0.131167,-0.33965 -0.129994,-1.1956 0.0015,-1.04828 0.05969,-1.27623 0.399108,-1.56183 0.241397,-0.20312 0.487713,-0.23406 1.675163,-0.21041 1.128209,0.0225 1.287618,0.0758 1.533079,0.5125 0.126819,0.22564 0.131863,0.28342 0.114468,1.31156 -0.02018,1.19267 -0.03767,1.25169 -0.455189,1.53585 -0.184694,0.12571 -0.244194,0.13128 -1.400872,0.13128 -1.156581,0 -1.216425,-0.006 -1.406237,-0.13175 z m 5.866434,0.0758 c -0.159715,-0.0647 -0.482558,-0.43744 -0.524868,-0.60601 -0.01859,-0.0741 -0.02554,-0.60527 -0.01544,-1.18041 0.01733,-0.98617 0.02612,-1.05655 0.154258,-1.2362 0.2544,-0.35668 0.38682,-0.39087 1.5959,-0.41203 1.287101,-0.0225 1.494324,0.0313 1.779266,0.46183 l 0.164689,0.24886 v 1.05873 c 0,1.0487 -0.0015,1.06096 -0.155242,1.29332 -0.261422,0.39504 -0.396719,0.42839 -1.720613,0.42416 -0.636946,-0.002 -1.212028,-0.0256 -1.27796,-0.0522 z m -13.731216,-7.74974 c 1.090625,-0.53368 1.348691,-1.93668 0.528199,-2.87161 l -0.179213,-0.20421 -0.0037,0.81683 c -0.0042,0.93118 -0.07841,1.18779 -0.418796,1.44742 -0.450128,0.34333 -1.012843,0.33183 -1.423905,-0.0291 -0.350672,-0.3079 -0.396142,-0.45291 -0.423075,-1.34926 l -0.02422,-0.80609 -0.14491,0.13513 c -0.377795,0.35228 -0.581137,1.16398 -0.430788,1.71962 0.14217,0.52541 0.680894,1.08624 1.19388,1.24287 0.322917,0.0986 1.02764,0.0446 1.326481,-0.10162 z m 7.236633,-0.0281 c 0.655972,-0.33958 1.033317,-1.02164 0.967398,-1.7486 -0.03622,-0.39943 -0.252658,-0.87909 -0.506351,-1.12214 l -0.177009,-0.16959 v 0.83007 c 0,0.92492 -0.06041,1.13627 -0.408511,1.42917 -0.429827,0.36168 -1.12373,0.32099 -1.495462,-0.0877 -0.275594,-0.30298 -0.313135,-0.46374 -0.313135,-1.3409 v -0.83065 l -0.17701,0.16959 c -0.09736,0.0933 -0.242407,0.30325 -0.322338,0.46662 -0.396961,0.81137 -0.146672,1.79399 0.582875,2.28835 0.355286,0.24075 0.545067,0.29446 1.063688,0.30098 0.363613,0.005 0.465703,-0.0195 0.785855,-0.18521 z m 7.158287,0.0115 c 0.428377,-0.21407 0.723445,-0.53972 0.890914,-0.98325 0.229948,-0.60902 0.06026,-1.45783 -0.372029,-1.86093 l -0.14491,-0.13513 -0.02422,0.80609 c -0.02693,0.89635 -0.0724,1.04136 -0.423076,1.34926 -0.397816,0.34929 -0.947397,0.3724 -1.381292,0.0581 -0.381343,-0.27625 -0.457125,-0.51874 -0.461408,-1.47643 l -0.0037,-0.81682 -0.179212,0.2042 c -0.483863,0.55135 -0.621397,1.33886 -0.344107,1.97032 0.163257,0.37177 0.652115,0.84021 1.008434,0.96631 0.136917,0.0484 0.435097,0.0902 0.662621,0.0927 0.35044,0.004 0.468449,-0.0228 0.771937,-0.17441 z"
       id="path8228" /></g></svg>
