<?xml version="1.0" encoding="UTF-8" standalone="no"?>
<!-- Created with Inkscape (http://www.inkscape.org/) -->

<svg
   width="67.333656mm"
   height="98.804253mm"
   viewBox="0 0 67.333656 98.804253"
   version="1.1"
   id="svg1"
   xml:space="preserve"
   inkscape:export-filename="Origen.svg"
   inkscape:export-xdpi="96"
   inkscape:export-ydpi="96"
   xmlns:inkscape="http://www.inkscape.org/namespaces/inkscape"
   xmlns:sodipodi="http://sodipodi.sourceforge.net/DTD/sodipodi-0.dtd"
   xmlns="http://www.w3.org/2000/svg"
   xmlns:svg="http://www.w3.org/2000/svg"><sodipodi:namedview
     id="namedview1"
     pagecolor="#ffffff"
     bordercolor="#000000"
     borderopacity="0.25"
     inkscape:showpageshadow="2"
     inkscape:pageopacity="0.0"
     inkscape:pagecheckerboard="0"
     inkscape:deskcolor="#d1d1d1"
     inkscape:document-units="mm"
     inkscape:zoom="0.70110129"
     inkscape:cx="396.51902"
     inkscape:cy="561.25984"
     inkscape:window-width="1920"
     inkscape:window-height="1001"
     inkscape:window-x="-9"
     inkscape:window-y="-9"
     inkscape:window-maximized="1"
     inkscape:current-layer="layer1" /><defs
     id="defs1" /><g
     inkscape:label="Capa 1"
     inkscape:groupmode="layer"
     id="layer1"
     transform="translate(-31.049798,-111.19271)"><path
       style="fill:#000000;stroke-width:0.716744"
       d="m 62.9963,209.72848 c -0.384411,-0.14217 -0.982885,-0.48295 -1.329942,-0.7573 -0.921286,-0.72826 -14.086172,-22.60952 -19.531224,-32.46269 -3.093518,-5.59792 -7.289078,-14.16506 -8.478084,-17.31185 -3.120177,-8.25779 -3.445524,-16.84823 -0.945454,-24.96372 0.874495,-2.8387 3.035358,-7.16041 4.78018,-9.56031 5.364929,-7.37916 13.134626,-11.95815 22.477846,-13.24707 2.94378,-0.4061 8.632611,-0.26262 11.402668,0.28761 9.184811,1.8244 16.516892,6.76227 21.505638,14.48321 5.595411,8.65986 6.999467,19.53267 3.873596,29.99653 -1.625341,5.4408 -6.219387,14.77911 -13.27108,26.97607 -4.418351,7.64221 -14.663229,24.57596 -15.285808,25.26589 -1.254209,1.3899 -3.456336,1.93791 -5.198336,1.29363 z m 7.2588,-16.23095 c 10.192753,-16.98355 14.090884,-23.97012 17.723004,-31.76466 3.29566,-7.07252 4.30772,-10.97634 4.310079,-16.62527 0.0056,-13.42299 -8.654819,-24.35258 -21.456584,-27.0786 -8.150015,-1.73548 -17.11375,0.18482 -23.260293,4.98303 -5.062187,3.95173 -8.547963,9.66994 -9.956424,16.33293 -0.418644,1.98047 -0.573613,7.19917 -0.284968,9.59654 0.984868,8.17994 5.553069,17.51896 21.751619,44.46804 4.13187,6.87408 5.597929,9.16792 5.752392,9.0004 0.114006,-0.12366 2.553536,-4.13424 5.421175,-8.91241 z M 63.412354,160.3713 c -4.82424,-0.42291 -9.08118,-3.53969 -11.183333,-8.18803 -1.016684,-2.24812 -1.363975,-4.11752 -1.251583,-6.73705 0.161422,-3.76233 1.346086,-6.54213 3.962613,-9.29821 2.086427,-2.1977 4.240342,-3.43225 7.024232,-4.02603 4.725164,-1.00785 9.563208,0.61551 12.850286,4.31179 2.378238,2.67429 3.510868,5.47339 3.650642,9.02191 0.107341,2.72519 -0.250796,4.54677 -1.360664,6.92065 -1.00043,2.13982 -2.288106,3.8017 -3.937664,5.08198 -2.942572,2.28384 -6.117152,3.23186 -9.754529,2.91299 z m 3.270798,-6.46056 c 3.815064,-1.02957 6.371216,-5.03753 5.706626,-8.94776 -0.760059,-4.47189 -4.527272,-7.35095 -8.822133,-6.74223 -4.184445,0.59308 -7.257805,4.94652 -6.500228,9.20762 0.853193,4.7989 5.141515,7.68984 9.615735,6.48237 z"
       id="path4" /></g></svg>
