<?xml version="1.0" encoding="UTF-8" standalone="no"?>
<!-- Created with Inkscape (http://www.inkscape.org/) -->

<svg
   width="84.548996mm"
   height="135.35434mm"
   viewBox="0 0 84.548996 135.35434"
   version="1.1"
   id="svg1"
   xml:space="preserve"
   inkscape:export-filename="Origen.svg"
   inkscape:export-xdpi="96"
   inkscape:export-ydpi="96"
   xmlns:inkscape="http://www.inkscape.org/namespaces/inkscape"
   xmlns:sodipodi="http://sodipodi.sourceforge.net/DTD/sodipodi-0.dtd"
   xmlns="http://www.w3.org/2000/svg"
   xmlns:svg="http://www.w3.org/2000/svg"><sodipodi:namedview
     id="namedview1"
     pagecolor="#ffffff"
     bordercolor="#000000"
     borderopacity="0.25"
     inkscape:showpageshadow="2"
     inkscape:pageopacity="0.0"
     inkscape:pagecheckerboard="0"
     inkscape:deskcolor="#d1d1d1"
     inkscape:document-units="mm"
     inkscape:zoom="0.70110129"
     inkscape:cx="396.51902"
     inkscape:cy="561.25984"
     inkscape:window-width="1920"
     inkscape:window-height="1001"
     inkscape:window-x="-9"
     inkscape:window-y="-9"
     inkscape:window-maximized="1"
     inkscape:current-layer="layer1" /><defs
     id="defs1" /><g
     inkscape:label="Capa 1"
     inkscape:groupmode="layer"
     id="layer1"
     transform="translate(-36.539605,-14.166478)"><path
       style="fill:#e9631a;fill-opacity:1"
       d="m 107.59485,149.35209 c 4.8861,-1.02446 9.49309,-4.63055 11.6474,-9.11695 1.06555,-2.21904 1.84635,-5.35298 1.84635,-7.41086 0,-2.12534 -0.77735,-5.22228 -1.89273,-7.54063 l -1.08199,-2.24896 -20.533651,-20.57135 -20.53365,-20.571353 20.53729,-20.57136 20.537291,-20.57135 1.06935,-2.24896 c 1.11324,-2.34125 1.89808,-5.45927 1.89808,-7.54062 0,-3.6854 -1.84039,-8.39423 -4.37169,-11.18544 -3.36831,-3.71415 -7.61011,-5.60778 -12.56164,-5.60778 -2.9132,0 -5.116461,0.53577 -7.775031,1.89067 -2.09986,1.07016 -2.74398,1.69102 -29.43433,28.37124 -29.709617,29.69837 -28.406527,28.2668 -29.766467,32.7011 -0.8531,2.78168 -0.8531,6.74331 0,9.525 1.35461,4.41693 0.13873,3.07614 29.106657,32.096763 14.64341,14.67005 27.16738,27.0759 27.83104,27.56856 1.45501,1.08012 3.49038,2.12521 5.20319,2.67166 1.522271,0.48567 6.618741,0.70778 8.274531,0.36062 z"
       id="path4"
       inkscape:export-filename="flecha derecha.svg"
       inkscape:export-xdpi="96"
       inkscape:export-ydpi="96" /></g></svg>
