<?xml version="1.0" encoding="UTF-8" standalone="no"?>
<!-- Created with Inkscape (http://www.inkscape.org/) -->

<svg
   width="135.51485mm"
   height="135.42688mm"
   viewBox="0 0 135.51485 135.42688"
   version="1.1"
   id="svg1"
   xml:space="preserve"
   inkscape:export-filename="Origen.svg"
   inkscape:export-xdpi="96"
   inkscape:export-ydpi="96"
   xmlns:inkscape="http://www.inkscape.org/namespaces/inkscape"
   xmlns:sodipodi="http://sodipodi.sourceforge.net/DTD/sodipodi-0.dtd"
   xmlns="http://www.w3.org/2000/svg"
   xmlns:svg="http://www.w3.org/2000/svg"><sodipodi:namedview
     id="namedview1"
     pagecolor="#ffffff"
     bordercolor="#000000"
     borderopacity="0.25"
     inkscape:showpageshadow="2"
     inkscape:pageopacity="0.0"
     inkscape:pagecheckerboard="0"
     inkscape:deskcolor="#d1d1d1"
     inkscape:document-units="mm"
     inkscape:zoom="0.70110129"
     inkscape:cx="396.51902"
     inkscape:cy="561.25984"
     inkscape:window-width="1920"
     inkscape:window-height="1001"
     inkscape:window-x="-9"
     inkscape:window-y="-9"
     inkscape:window-maximized="1"
     inkscape:current-layer="layer1" /><defs
     id="defs1" /><g
     inkscape:label="Capa 1"
     inkscape:groupmode="layer"
     id="layer1"
     transform="translate(-33.755551,-12.083061)"><path
       style="fill:#315762;fill-opacity:1"
       d="M 93.578385,147.15478 C 75.014694,144.89922 58.489735,135.34901 47.230671,120.36922 30.207259,97.720161 29.222473,66.343171 44.79384,42.727591 c 12.716171,-19.285376 33.741599,-30.64453 56.72205,-30.64453 22.98458,0 44.00358,11.35568 56.72204,30.64453 14.70996,22.30916 14.70996,51.86844 0,74.177599 -11.17149,16.94272 -28.91613,27.90295 -48.97348,30.24919 -4.05144,0.47392 -11.787272,0.47412 -15.686065,4e-4 z M 110.7763,91.325761 v -27.38437 h -9.26041 -9.260421 v 27.38437 27.384379 h 9.260421 9.26041 z m 0,-42.46562 v -7.9375 h -9.26041 -9.260421 v 7.9375 7.9375 h 9.260421 9.26041 z"
       id="path4" /></g></svg>
