<?xml version="1.0" encoding="UTF-8" standalone="no"?>
<!-- Created with Inkscape (http://www.inkscape.org/) -->

<svg
   width="44.251682mm"
   height="74.98658mm"
   viewBox="0 0 44.251682 74.98658"
   version="1.1"
   id="svg5"
   xml:space="preserve"
   xmlns:inkscape="http://www.inkscape.org/namespaces/inkscape"
   xmlns:sodipodi="http://sodipodi.sourceforge.net/DTD/sodipodi-0.dtd"
   xmlns="http://www.w3.org/2000/svg"
   xmlns:svg="http://www.w3.org/2000/svg"><sodipodi:namedview
     id="namedview7"
     pagecolor="#ffffff"
     bordercolor="#000000"
     borderopacity="0.25"
     inkscape:showpageshadow="2"
     inkscape:pageopacity="0.0"
     inkscape:pagecheckerboard="0"
     inkscape:deskcolor="#d1d1d1"
     inkscape:document-units="mm"
     showgrid="false" /><defs
     id="defs2" /><g
     inkscape:label="Capa 1"
     inkscape:groupmode="layer"
     id="layer1"
     transform="translate(-33.189038,-69.175528)"><path
       style="fill:#000000;stroke-width:0.180619"
       d="m 41.858768,143.83293 c -1.23336,-0.64906 -2.25774,-2.05052 -2.25774,-3.08881 0,-0.48027 -0.0674,-0.52684 -1.05867,-0.73158 -1.98896,-0.41082 -3.84136,-1.93745 -4.86309,-4.00786 l -0.49023,-0.99341 V 110.89481 86.778355 l 0.59021,-1.19891 c 0.75901,-1.541794 2.328,-3.030284 3.78356,-3.589449 0.90844,-0.348985 1.49672,-0.412926 4.50726,-0.489899 l 3.46244,-0.08853 0.0596,-5.093069 c 0.059,-5.039336 0.0642,-5.099765 0.49489,-5.727916 0.2394,-0.349166 0.69146,-0.810396 1.00459,-1.024954 0.56134,-0.384634 0.67667,-0.390106 8.22329,-0.390106 7.54662,0 7.66195,0.0055 8.22329,0.390106 0.31313,0.214558 0.76519,0.67575 1.00459,1.024869 0.43096,0.628494 0.4358,0.685064 0.49058,5.727818 l 0.0553,5.093054 3.46675,0.08863 c 3.01487,0.07708 3.60294,0.140944 4.51156,0.489998 1.45556,0.559165 3.02455,2.047655 3.78356,3.589448 l 0.59021,1.19891 v 24.116455 24.11646 l -0.4168,0.8972 c -0.93964,2.02266 -2.94961,3.69368 -4.93652,4.10407 -0.99231,0.20496 -1.05867,0.25092 -1.05867,0.73335 0,1.03863 -1.00459,2.42431 -2.20539,3.04196 -1.43333,0.73728 -3.54624,0.35107 -4.69371,-0.85794 -0.56698,-0.59738 -1.04815,-1.65949 -1.04815,-2.31363 v -0.45735 h -7.76663 -7.76663 v 0.45735 c 0,1.13738 -0.9741,2.53822 -2.20539,3.17157 -0.84067,0.43243 -2.70232,0.45651 -3.48412,0.0451 z m 19.97031,-62.562264 c 0.33067,-0.176969 0.34937,-0.421483 0.34937,-4.569669 0,-3.167938 -0.0601,-4.442771 -0.21675,-4.599439 -0.31075,-0.31075 -12.98283,-0.31075 -13.29358,0 -0.15666,0.156661 -0.21675,1.430919 -0.21675,4.596819 0,3.980953 0.0288,4.396851 0.31609,4.564177 0.43395,0.252751 12.5904,0.260301 13.06162,0.0081 z"
       id="path7005" /></g></svg>
