<?xml version="1.0" encoding="UTF-8" standalone="no"?>
<!-- Created with Inkscape (http://www.inkscape.org/) -->

<svg
   width="43.966221mm"
   height="74.716743mm"
   viewBox="0 0 43.966221 74.716743"
   version="1.1"
   id="svg5"
   xml:space="preserve"
   xmlns:inkscape="http://www.inkscape.org/namespaces/inkscape"
   xmlns:sodipodi="http://sodipodi.sourceforge.net/DTD/sodipodi-0.dtd"
   xmlns="http://www.w3.org/2000/svg"
   xmlns:svg="http://www.w3.org/2000/svg"><sodipodi:namedview
     id="namedview7"
     pagecolor="#ffffff"
     bordercolor="#000000"
     borderopacity="0.25"
     inkscape:showpageshadow="2"
     inkscape:pageopacity="0.0"
     inkscape:pagecheckerboard="0"
     inkscape:deskcolor="#d1d1d1"
     inkscape:document-units="mm"
     showgrid="false" /><defs
     id="defs2" /><g
     inkscape:label="Capa 1"
     inkscape:groupmode="layer"
     id="layer1"
     transform="translate(-36.577702,-68.035177)"><path
       style="fill:#e9631a;fill-opacity:1;stroke-width:1.76859"
       d="m 45.583771,142.62742 c -1.019511,-0.1998 -2.605799,-2.18613 -2.616927,-3.27688 -0.0033,-0.32533 -0.215715,-0.45701 -1.237909,-0.76749 -2.170957,-0.65941 -3.62666,-1.9014 -4.673597,-3.98746 l -0.477637,-0.95171 V 109.5004 85.356914 l 0.650301,-1.083863 c 1.705959,-2.84334 3.641071,-3.910367 7.0958,-3.912659 0.907044,-5.29e-4 2.321771,-0.05346 3.143839,-0.117454 l 1.494669,-0.116361 0.05601,-5.050099 c 0.05502,-4.960964 0.06359,-5.061127 0.485635,-5.674775 0.236296,-0.343572 0.646768,-0.788866 0.912164,-0.989542 0.464817,-0.35147 0.764998,-0.364866 8.176924,-0.364866 10.233146,0 9.379394,-0.616519 9.61772,6.945265 l 0.163462,5.186492 0.475052,0.01098 c 0.261276,0.006 1.874269,0.07437 3.584429,0.151853 2.756258,0.124883 3.222771,0.192794 4.107842,0.597992 1.231363,0.563738 2.642513,1.916012 3.417482,3.274902 l 0.584891,1.025586 v 24.312545 24.31254 l -0.409829,0.84092 c -0.849379,1.74284 -3.10732,3.5659 -4.880711,3.94069 -0.831471,0.17572 -1.094594,0.40292 -1.094594,0.94515 0,0.24354 -0.116377,0.66449 -0.258614,0.93543 -0.357669,0.68133 -1.55194,1.79964 -2.170494,2.03245 -1.231029,0.46333 -3.110452,0.0563 -4.092696,-0.88632 -0.579771,-0.55639 -1.14036,-1.72604 -1.14036,-2.37934 v -0.55456 h -7.828558 -7.82856 l -0.124052,0.73427 c -0.178613,1.05719 -1.125908,2.35879 -2.080292,2.85837 -0.771213,0.40369 -1.926532,0.51535 -3.051387,0.29491 z M 65.362142,79.859795 c 0.183918,-0.447881 0.164566,-8.921329 -0.0208,-9.106611 C 65.137405,70.54933 54.084593,70.447968 52.814191,70.638302 l -1.003377,0.150325 -0.04891,4.444511 c -0.03439,3.125589 0.01283,4.518903 0.159163,4.695211 0.169415,0.204134 1.424977,0.250703 6.759022,0.250703 6.067441,0 6.560632,-0.02357 6.682053,-0.319257 z"
       id="path8051" /></g></svg>
