<?xml version="1.0" encoding="UTF-8" standalone="no"?>
<!-- Created with Inkscape (http://www.inkscape.org/) -->

<svg
   width="210mm"
   height="297mm"
   viewBox="0 0 210 297"
   version="1.1"
   id="svg1"
   xml:space="preserve"
   inkscape:export-filename="NL studio.svg"
   inkscape:export-xdpi="96"
   inkscape:export-ydpi="96"
   xmlns:inkscape="http://www.inkscape.org/namespaces/inkscape"
   xmlns:sodipodi="http://sodipodi.sourceforge.net/DTD/sodipodi-0.dtd"
   xmlns="http://www.w3.org/2000/svg"
   xmlns:svg="http://www.w3.org/2000/svg"><sodipodi:namedview
     id="namedview1"
     pagecolor="#ffffff"
     bordercolor="#000000"
     borderopacity="0.25"
     inkscape:showpageshadow="2"
     inkscape:pageopacity="0.0"
     inkscape:pagecheckerboard="0"
     inkscape:deskcolor="#d1d1d1"
     inkscape:document-units="mm"
     inkscape:zoom="0.70110129"
     inkscape:cx="396.51902"
     inkscape:cy="561.25984"
     inkscape:window-width="1920"
     inkscape:window-height="1001"
     inkscape:window-x="-9"
     inkscape:window-y="-9"
     inkscape:window-maximized="1"
     inkscape:current-layer="layer1" /><defs
     id="defs1" /><g
     inkscape:label="Capa 1"
     inkscape:groupmode="layer"
     id="layer1"><path
       style="fill:#e9631a;fill-opacity:1"
       d="m 126.27663,257.05999 c -7.91455,-1.94725 -13.96766,-8.54772 -15.2006,-16.57511 -0.19258,-1.25384 -0.25998,-11.56249 -0.21014,-32.14067 l 0.0734,-30.29479 0.64107,-1.30252 c 1.43146,-2.90847 3.94258,-4.48163 7.16414,-4.48817 3.31462,-0.007 5.65181,1.43342 7.13136,4.39427 l 0.80614,1.61323 0.0116,13.51764 c 0.0102,11.82285 0.0574,13.38917 0.37684,12.49303 1.13417,-3.18176 5.1391,-5.58625 8.42089,-5.05574 2.84339,0.45964 5.05781,2.13354 6.29366,4.75742 0.4237,0.89957 0.75406,1.35819 0.76234,1.05834 0.026,-0.94055 1.5814,-3.29248 2.72915,-4.12677 1.75779,-1.27771 2.80496,-1.63649 4.84163,-1.65883 1.60623,-0.0176 2.1238,0.10314 3.63888,0.84901 2.00821,0.98864 3.4602,2.62418 3.94764,4.44667 l 0.29652,1.10865 0.60082,-1.47828 c 2.54463,-6.26092 11.32858,-6.67776 14.39081,-0.68291 l 0.65275,1.27787 v 18.38854 18.38854 l -0.72083,2.11667 c -2.25165,6.61176 -7.7113,11.70145 -14.3366,13.3651 -1.96378,0.49312 -2.96725,0.52432 -16.27187,0.50605 -12.50519,-0.0172 -14.39867,-0.0735 -16.03958,-0.47724 z M 76.325149,207.53563 C 59.764086,205.6109 45.639484,194.19221 40.43097,178.51784 c -1.48155,-4.45853 -1.885567,-6.91088 -2.038689,-12.37467 -0.168696,-6.0195 0.333464,-9.65764 2.035762,-14.74907 2.23743,-6.69196 5.336928,-11.67 10.429007,-16.7498 5.127703,-5.11534 10.096635,-8.2101 16.758144,-10.43735 5.091427,-1.7023 8.729565,-2.20446 14.749071,-2.03576 7.250774,0.2032 11.727594,1.30326 17.991665,4.42099 13.49345,6.71591 22.39463,20.08322 23.56177,35.3838 0.10268,1.34607 0.14153,2.4474 0.0863,2.4474 -0.0552,0 -0.93376,-0.17653 -1.95236,-0.39228 -3.69018,-0.78164 -7.04954,-0.31579 -10.70016,1.48383 -3.81554,1.88091 -6.87084,5.49422 -8.41081,9.94691 -0.37755,1.09168 -0.45046,3.0143 -0.53299,14.05587 l -0.0956,12.79121 -2.697871,1.26863 c -2.73382,1.28555 -6.63551,2.66167 -9.04787,3.19119 -4.280078,0.93949 -10.072277,1.2514 -14.2412,0.76689 z m 7.132604,-11.64857 c 1.17027,-0.72326 1.94922,-2.4283 1.94922,-4.26663 v -1.47547 l 1.83784,-0.45038 c 4.909366,-1.2031 8.859026,-4.14745 10.804386,-8.05433 0.91199,-1.83155 0.98524,-2.15823 1.07554,-4.79635 0.15693,-4.58481 -0.91174,-7.35482 -4.03165,-10.45016 -3.0249,-3.00108 -6.35409,-4.50769 -12.76935,-5.77873 -3.866005,-0.76596 -5.251506,-1.20064 -6.892861,-2.16254 -1.68756,-0.98898 -2.459321,-2.28421 -2.459321,-4.12745 0,-1.84031 0.242971,-2.52185 1.347521,-3.77986 1.781349,-2.02885 5.599306,-3.16657 8.694616,-2.59094 3.131445,0.58235 5.242665,2.1684 6.950265,5.22136 1.1406,2.03924 2.42155,2.85014 4.26012,2.69686 2.12667,-0.1773 3.60993,-1.66593 3.81805,-3.83188 0.11118,-1.15709 -0.008,-1.56798 -1.02278,-3.52544 -1.67374,-3.22861 -4.1475,-5.63173 -7.40877,-7.1972 -1.3661,-0.65575 -2.855502,-1.2678 -3.309787,-1.3601 -0.820437,-0.16671 -0.826814,-0.18096 -0.951685,-2.12671 -0.103049,-1.60572 -0.254728,-2.12802 -0.841351,-2.89712 -1.407373,-1.84516 -3.571574,-2.26279 -5.591546,-1.07901 -1.434887,0.8409 -1.975903,1.98386 -1.975903,4.17431 v 1.70406 l -1.576685,0.47738 c -6.601986,1.99892 -10.958734,7.62183 -10.911041,14.08202 0.02756,3.73321 1.068594,6.34878 3.588461,9.01592 2.571967,2.72229 5.856681,4.20078 12.467826,5.61192 6.197726,1.32289 8.631121,2.5477 9.688961,4.87678 1.07143,2.35898 0.44778,4.78727 -1.58055,6.15416 -2.080109,1.40178 -3.640796,1.78277 -7.343788,1.79272 l -3.472024,0.009 -2.074448,-1.05833 c -2.366251,-1.2072 -3.435435,-2.39469 -4.339897,-4.8201 -0.882399,-2.36624 -2.221605,-3.51427 -4.099466,-3.51427 -2.967353,0 -4.90256,2.59233 -4.140143,5.54598 1.383176,5.35852 5.99336,9.88341 11.874564,11.65486 l 1.91823,0.57778 v 1.78718 c 0,2.18989 0.627005,3.29362 2.383385,4.19553 1.375649,0.7064 2.735792,0.62903 4.134061,-0.23515 z"
       id="path4" /></g></svg>
