<?xml version="1.0" encoding="UTF-8" standalone="no"?>
<!-- Created with Inkscape (http://www.inkscape.org/) -->

<svg
   width="28.79306mm"
   height="30.112328mm"
   viewBox="0 0 28.79306 30.112328"
   version="1.1"
   id="svg5"
   xml:space="preserve"
   xmlns:inkscape="http://www.inkscape.org/namespaces/inkscape"
   xmlns:sodipodi="http://sodipodi.sourceforge.net/DTD/sodipodi-0.dtd"
   xmlns="http://www.w3.org/2000/svg"
   xmlns:svg="http://www.w3.org/2000/svg"><sodipodi:namedview
     id="namedview7"
     pagecolor="#ffffff"
     bordercolor="#000000"
     borderopacity="0.25"
     inkscape:showpageshadow="2"
     inkscape:pageopacity="0.0"
     inkscape:pagecheckerboard="0"
     inkscape:deskcolor="#d1d1d1"
     inkscape:document-units="mm"
     showgrid="false" /><defs
     id="defs2" /><g
     inkscape:label="Capa 1"
     inkscape:groupmode="layer"
     id="layer1"
     transform="translate(-142.28083,-117.9712)"><path
       style="fill:#000000;stroke-width:0.0240644"
       d="m 149.98016,148.05705 c -0.006,-0.0169 -0.009,-1.93636 -0.005,-4.26542 l 0.007,-4.23468 0.0644,-0.24235 c 0.17621,-0.66354 0.44168,-1.13347 0.89638,-1.58674 0.39394,-0.39271 0.80998,-0.64998 1.32274,-0.81794 0.50265,-0.16465 0.33026,-0.15892 4.52594,-0.15037 4.19207,0.008 3.84026,-0.005 4.35385,0.16702 0.80009,0.26791 1.51907,0.8936 1.90308,1.65614 0.10775,0.21397 0.23555,0.58868 0.29124,0.85392 0.0436,0.20761 0.0455,0.39101 0.0455,4.42785 v 4.21127 l -6.69668,0.006 c -5.4179,0.005 -6.69892,2.5e-4 -6.70847,-0.0247 z m 11.61235,-3.67518 v -1.20322 h -4.74069 -4.74069 v 1.20322 1.20322 h 4.74069 4.74069 z m -13.93189,3.65512 c -0.88188,-0.10346 -1.61915,-0.69995 -1.90366,-1.54012 -0.12488,-0.36879 -0.11896,0.10358 -0.11906,-9.50748 -7e-5,-6.12488 0.008,-9.04177 0.0256,-9.25276 0.12813,-1.53887 0.68168,-2.94105 1.63935,-4.15259 0.25168,-0.31839 0.87581,-0.94205 1.19866,-1.19776 1.187,-0.94012 2.59165,-1.49845 4.11138,-1.63421 0.13697,-0.0122 0.2545,-0.0277 0.26118,-0.0344 0.007,-0.007 0.0277,-0.10196 0.0468,-0.21172 0.15841,-0.91281 0.79456,-1.76945 1.63095,-2.19623 0.24045,-0.12269 0.56012,-0.23299 0.8562,-0.29542 0.17904,-0.0377 0.33804,-0.0431 1.27541,-0.0431 1.16385,0 1.22537,0.005 1.67248,0.14892 0.8558,0.27455 1.59441,0.96844 1.91635,1.8003 0.0892,0.23051 0.18928,0.61292 0.18928,0.72329 0,0.079 7.5e-4,0.0795 0.13837,0.0936 0.47085,0.0483 0.80023,0.0941 1.05972,0.14759 3.09713,0.63797 5.49332,3.16004 5.97347,6.28728 0.0974,0.63462 0.099,0.80134 0.0907,10.02649 -0.007,8.12801 -0.0114,8.91751 -0.0471,9.06084 -0.21171,0.8486 -0.82634,1.48967 -1.64424,1.71494 -0.21661,0.0597 -0.53327,0.0889 -0.96565,0.0891 -0.2975,2.4e-4 -0.39442,-0.007 -0.41518,-0.0324 -0.0198,-0.0239 -0.027,-1.14218 -0.0268,-4.18119 2.4e-4,-2.62925 -0.009,-4.21906 -0.0239,-4.34107 -0.2314,-1.84712 -1.5612,-3.36514 -3.37254,-3.84989 -0.56247,-0.15053 -0.3828,-0.1448 -4.54498,-0.1448 -4.17338,0 -3.96705,-0.007 -4.56021,0.14851 -1.21568,0.31814 -2.27104,1.1561 -2.86072,2.27143 -0.24644,0.46613 -0.39569,0.90993 -0.48912,1.45443 -0.0376,0.21898 -0.0425,0.61965 -0.0543,4.45191 l -0.013,4.21127 -0.43316,0.003 c -0.23824,0.002 -0.51375,-0.006 -0.61224,-0.0179 z m 13.25808,-21.37856 v -0.92648 h -4.23533 -4.23534 v 0.92648 0.92648 h 4.23534 4.23533 z m -1.60285,-6.08228 c -0.0491,-0.21477 -0.22041,-0.5555 -0.37903,-0.75399 -0.23942,-0.2996 -0.55312,-0.51659 -0.94194,-0.65155 l -0.19252,-0.0668 -1.03572,-0.008 c -1.14511,-0.009 -1.22003,-0.002 -1.55963,0.13901 -0.37457,0.15593 -0.67553,0.40725 -0.90063,0.75206 -0.11331,0.17359 -0.24466,0.48612 -0.27807,0.66167 l -0.0149,0.0782 h 2.66842 2.66841 z m -15.74826,25.03379 c -0.56277,-0.0735 -1.03268,-0.46672 -1.22085,-1.02164 l -0.0659,-0.1944 v -2.17783 c 0,-2.32507 4.8e-4,-2.33602 0.12271,-2.82274 0.22648,-0.90187 0.80629,-1.72077 1.58586,-2.23982 0.29987,-0.19966 0.89991,-0.50686 0.91459,-0.46825 0.007,0.0177 0.009,2.03546 0.006,4.48401 l -0.006,4.45191 -0.60161,0.003 c -0.33088,0.002 -0.66147,-0.005 -0.73464,-0.0143 z m 24.90132,0.01 c -0.021,-0.0214 -0.025,-8.96238 -0.004,-8.96238 0.0397,0 0.70207,0.36373 0.90039,0.49445 0.87662,0.57781 1.48284,1.51082 1.66179,2.55759 0.044,0.25728 0.0468,0.40456 0.0468,2.46365 0,1.91216 -0.005,2.20851 -0.0378,2.33582 -0.12661,0.4886 -0.51812,0.89757 -1.00902,1.05401 -0.15365,0.049 -0.22869,0.0546 -0.85428,0.0645 -0.37721,0.006 -0.69396,0.002 -0.70389,-0.008 z"
       id="path7019" /></g></svg>
