<?xml version="1.0" encoding="UTF-8" standalone="no"?>
<!-- Created with Inkscape (http://www.inkscape.org/) -->

<svg
   width="67.278137mm"
   height="100.43857mm"
   viewBox="0 0 67.278137 100.43857"
   version="1.1"
   id="svg1"
   xml:space="preserve"
   inkscape:export-filename="Origen.svg"
   inkscape:export-xdpi="96"
   inkscape:export-ydpi="96"
   xmlns:inkscape="http://www.inkscape.org/namespaces/inkscape"
   xmlns:sodipodi="http://sodipodi.sourceforge.net/DTD/sodipodi-0.dtd"
   xmlns="http://www.w3.org/2000/svg"
   xmlns:svg="http://www.w3.org/2000/svg"><sodipodi:namedview
     id="namedview1"
     pagecolor="#ffffff"
     bordercolor="#000000"
     borderopacity="0.25"
     inkscape:showpageshadow="2"
     inkscape:pageopacity="0.0"
     inkscape:pagecheckerboard="0"
     inkscape:deskcolor="#d1d1d1"
     inkscape:document-units="mm"
     inkscape:zoom="0.70110129"
     inkscape:cx="396.51902"
     inkscape:cy="561.25984"
     inkscape:window-width="1920"
     inkscape:window-height="1001"
     inkscape:window-x="-9"
     inkscape:window-y="-9"
     inkscape:window-maximized="1"
     inkscape:current-layer="layer1" /><defs
     id="defs1" /><g
     inkscape:label="Capa 1"
     inkscape:groupmode="layer"
     id="layer1"
     transform="translate(-122.4429,-105.75377)"><path
       style="fill:#000000;stroke-width:1.03029"
       d="m 153.95908,205.65043 c -1.47889,-0.80134 -1.58762,-0.96078 -7.7738,-11.39963 -16.46411,-27.78236 -21.39838,-37.737 -23.2561,-46.91802 -0.6465,-3.19507 -0.64889,-10.93691 -0.004,-13.94 1.55819,-7.25963 4.53111,-12.98843 9.26499,-17.85359 2.60314,-2.67533 4.74281,-4.23515 8.33021,-6.07273 9.78105,-5.01015 21.51018,-4.94612 31.39695,0.17141 8.94098,4.62797 15.28736,13.43202 17.35303,24.07307 0.30962,1.59502 0.44929,3.69594 0.45068,6.77962 0.003,7.15038 -1.08099,11.31804 -5.30377,20.387 -3.83633,8.23904 -7.60403,15.02954 -18.56919,33.46719 -6.65988,11.19843 -6.91271,11.51631 -9.38766,11.80235 -1.03639,0.11978 -1.55249,0.0174 -2.50102,-0.49667 z m 5.69594,-13.01564 c 10.84172,-18.25028 15.2098,-26.09321 19.02125,-34.15281 2.64999,-5.60363 3.71964,-8.51504 4.43155,-12.06199 1.95442,-9.73759 -0.87524,-19.54004 -7.58205,-26.26553 -4.47712,-4.48956 -9.65754,-6.93801 -16.35691,-7.73085 -5.67198,-0.67124 -11.15866,0.33816 -16.30746,3.00014 -6.83274,3.53261 -11.65927,9.92668 -13.66621,18.10471 -0.81256,3.31112 -0.88079,9.40276 -0.1452,12.9665 1.61462,7.82239 6.74711,18.05488 21.53732,42.93836 2.94432,4.95363 5.41585,9.00201 5.49228,8.9964 0.0764,-0.005 1.68537,-2.61331 3.57543,-5.79493 z"
       id="path4-2" /></g></svg>
