<?xml version="1.0" encoding="UTF-8" standalone="no"?>
<!-- Created with Inkscape (http://www.inkscape.org/) -->

<svg
   width="94.788918mm"
   height="96.181519mm"
   viewBox="0 0 94.788918 96.181519"
   version="1.1"
   id="svg1"
   xml:space="preserve"
   inkscape:export-filename="Origen.svg"
   inkscape:export-xdpi="96"
   inkscape:export-ydpi="96"
   xmlns:inkscape="http://www.inkscape.org/namespaces/inkscape"
   xmlns:sodipodi="http://sodipodi.sourceforge.net/DTD/sodipodi-0.dtd"
   xmlns="http://www.w3.org/2000/svg"
   xmlns:svg="http://www.w3.org/2000/svg"><sodipodi:namedview
     id="namedview1"
     pagecolor="#ffffff"
     bordercolor="#000000"
     borderopacity="0.25"
     inkscape:showpageshadow="2"
     inkscape:pageopacity="0.0"
     inkscape:pagecheckerboard="0"
     inkscape:deskcolor="#d1d1d1"
     inkscape:document-units="mm"
     inkscape:zoom="0.70110129"
     inkscape:cx="396.51902"
     inkscape:cy="561.25984"
     inkscape:window-width="1920"
     inkscape:window-height="1001"
     inkscape:window-x="-9"
     inkscape:window-y="-9"
     inkscape:window-maximized="1"
     inkscape:current-layer="layer1" /><defs
     id="defs1" /><g
     inkscape:label="Capa 1"
     inkscape:groupmode="layer"
     id="layer1"
     transform="translate(-40.537938,-85.560491)"><path
       style="fill:#000000"
       d="m 42.531634,181.37148 c -0.448905,-0.19546 -1.08113,-0.69219 -1.404945,-1.10385 l -0.588754,-0.74848 0.09463,-10.7259 c 0.107877,-12.22779 0.17416,-12.69713 2.465537,-17.45801 2.173341,-4.51562 5.235991,-8.07011 9.261031,-10.74828 3.78993,-2.52173 7.35983,-3.82409 11.89078,-4.33793 3.17227,-0.35975 44.174507,-0.36086 47.360407,-0.001 6.15581,0.69479 11.49436,3.24311 15.86908,7.57499 3.21188,3.18043 5.76398,7.57113 7.04938,12.12794 0.56577,2.00568 0.60235,2.67896 0.69758,12.83966 l 0.1005,10.72299 -0.59175,0.7523 c -1.23635,1.57177 1.59549,1.48284 -46.862637,1.47157 -36.66746,-0.009 -44.668678,-0.0731 -45.340836,-0.36572 z m 86.408896,-12.83394 c 0,-7.45214 -0.24464,-9.80762 -1.32649,-12.77196 -2.22235,-6.08938 -6.82603,-10.41153 -13.23227,-12.42307 l -1.9777,-0.62099 H 87.93011 63.45616 l -1.97771,0.62099 c -7.84284,2.46263 -13.17689,8.66439 -14.28125,16.60443 -0.15263,1.09734 -0.2775,4.96311 -0.2775,8.5906 v 6.59543 h 41.01041 41.01042 z M 85.41657,128.17541 c -7.97315,-1.47719 -14.23196,-7.37515 -16.26582,-15.32799 -0.7558,-2.95536 -0.7558,-8.73394 0,-11.68931 2.10069,-8.214171 8.6688,-14.186661 16.98099,-15.441101 1.5574,-0.23503 2.38116,-0.21255 4.26082,0.11628 7.9627,1.39302 14.26862,7.31553 16.31691,15.324821 0.75581,2.95537 0.75581,8.73395 0,11.68931 -2.04973,8.01493 -8.31672,13.87797 -16.39811,15.34115 -2.36284,0.4278 -2.51696,0.42739 -4.89479,-0.0132 z m 6.24156,-6.99958 c 3.19695,-1.19613 6.10481,-3.83787 7.69756,-6.99308 2.13438,-4.22818 2.0445,-10.45097 -0.213,-14.746991 -2.57186,-4.89426 -8.20268,-8.03197 -12.86622,-7.16954 -5.21895,0.96513 -9.79328,5.50141 -10.92289,10.832021 -1.19622,5.64498 0.28163,11.29088 3.89164,14.86746 3.60691,3.57349 8.23959,4.77156 12.41291,3.21013 z"
       id="path4" /></g></svg>
