<?xml version="1.0" encoding="UTF-8" standalone="no"?>
<!-- Created with Inkscape (http://www.inkscape.org/) -->

<svg
   width="210mm"
   height="297mm"
   viewBox="0 0 210 297"
   version="1.1"
   id="svg1"
   xml:space="preserve"
   inkscape:export-filename="Metodo-pago.svg"
   inkscape:export-xdpi="96"
   inkscape:export-ydpi="96"
   xmlns:inkscape="http://www.inkscape.org/namespaces/inkscape"
   xmlns:sodipodi="http://sodipodi.sourceforge.net/DTD/sodipodi-0.dtd"
   xmlns="http://www.w3.org/2000/svg"
   xmlns:svg="http://www.w3.org/2000/svg"><sodipodi:namedview
     id="namedview1"
     pagecolor="#ffffff"
     bordercolor="#000000"
     borderopacity="0.25"
     inkscape:showpageshadow="2"
     inkscape:pageopacity="0.0"
     inkscape:pagecheckerboard="0"
     inkscape:deskcolor="#d1d1d1"
     inkscape:document-units="mm"
     inkscape:zoom="0.70110129"
     inkscape:cx="396.51902"
     inkscape:cy="561.25984"
     inkscape:window-width="1920"
     inkscape:window-height="1001"
     inkscape:window-x="-9"
     inkscape:window-y="-9"
     inkscape:window-maximized="1"
     inkscape:current-layer="layer1" /><defs
     id="defs1" /><g
     inkscape:label="Capa 1"
     inkscape:groupmode="layer"
     id="layer1"><path
       style="fill:#315762;fill-opacity:1"
       d="m 42.153156,182.6496 c -2.738169,-0.46806 -4.99625,-2.20781 -6.180968,-4.76215 l -0.674935,-1.45521 -0.0026,-24.01094 -0.0026,-24.01093 h 67.733327 67.73334 l -2.1e-4,24.01093 -2.1e-4,24.01094 -0.76138,1.5875 c -0.93814,1.95607 -2.06858,3.05575 -4.133,4.02057 l -1.5875,0.74193 -60.45729,0.037 c -33.251506,0.0203 -61.001209,-0.056 -61.666005,-0.16963 z m 45.351502,-21.94386 c 2.284115,-0.86842 2.361181,-3.97693 0.117983,-4.75891 -0.541171,-0.18865 -5.438188,-0.28438 -14.547764,-0.28438 -15.259276,0 -14.975452,-0.0314 -15.71448,1.73736 -0.331159,0.79258 -0.329764,1.02771 0.01094,1.84312 0.712002,1.70406 0.574778,1.6893 15.805084,1.70083 7.909296,0.006 13.950398,-0.0944 14.328237,-0.23802 z m 21.695832,-10.84791 c 2.28412,-0.86842 2.36118,-3.97693 0.11799,-4.75892 -0.55894,-0.19484 -8.51143,-0.28438 -25.258754,-0.28438 -27.156935,0 -25.94085,-0.0779 -26.688008,1.71027 -0.344693,0.82497 -0.344739,1.04606 -3.82e-4,1.87022 0.739246,1.76926 -0.512975,1.68935 26.653,1.70082 14.668755,0.006 24.785394,-0.0894 25.176154,-0.23801 z m -73.908198,-45.32611 2.09e-4,-7.739055 0.761378,-1.5875 c 0.938145,-1.95606 2.068582,-3.05575 4.132996,-4.02057 l 1.5875,-0.74193 h 61.251035 61.25104 l 1.5875,0.74193 c 2.06442,0.96482 3.19486,2.06451 4.133,4.02057 l 0.76138,1.5875 2.1e-4,7.739055 2.1e-4,7.73907 H 103.02541 35.292084 Z"
       id="path4" /></g></svg>
