<?xml version="1.0" encoding="UTF-8" standalone="no"?>
<!-- Created with Inkscape (http://www.inkscape.org/) -->

<svg
   width="39.64724mm"
   height="38.552643mm"
   viewBox="0 0 39.64724 38.552643"
   version="1.1"
   id="svg5"
   xml:space="preserve"
   xmlns:inkscape="http://www.inkscape.org/namespaces/inkscape"
   xmlns:sodipodi="http://sodipodi.sourceforge.net/DTD/sodipodi-0.dtd"
   xmlns="http://www.w3.org/2000/svg"
   xmlns:svg="http://www.w3.org/2000/svg"><sodipodi:namedview
     id="namedview7"
     pagecolor="#ffffff"
     bordercolor="#000000"
     borderopacity="0.25"
     inkscape:showpageshadow="2"
     inkscape:pageopacity="0.0"
     inkscape:pagecheckerboard="0"
     inkscape:deskcolor="#d1d1d1"
     inkscape:document-units="mm"
     showgrid="false" /><defs
     id="defs2" /><g
     inkscape:label="Capa 1"
     inkscape:groupmode="layer"
     id="layer1"
     transform="translate(-13.264923,-15.518138)"><path
       style="fill:#000000;stroke-width:0.159576"
       d="m 24.908755,52.379184 c -0.940359,-0.930379 -1.763134,-1.828558 -1.828388,-1.995964 -0.08479,-0.21752 0.04899,-0.541022 0.468797,-1.133749 1.101951,-1.555811 0.949589,-3.585163 -0.365164,-4.863618 -0.851607,-0.828095 -1.658045,-1.082351 -3.083709,-0.972254 -0.829558,0.06407 -1.171015,0.183959 -1.884126,0.661539 -0.770646,0.516108 -0.914879,0.561451 -1.252386,0.393669 -0.71363,-0.354755 -3.698856,-3.426047 -3.698856,-3.805496 0,-0.259079 2.295742,-2.588638 8.490483,-8.615557 l 8.490483,-8.260463 1.775281,1.701099 c 1.812847,1.737105 2.304024,1.987941 2.414599,1.233118 0.04055,-0.276756 -0.321635,-0.726972 -1.577794,-1.961321 -0.896732,-0.881163 -1.630424,-1.676738 -1.630424,-1.767953 0,-0.09121 1.696651,-1.810198 3.770337,-3.819966 2.759292,-2.674245 3.871524,-3.654129 4.147666,-3.654129 0.264442,0 0.895283,0.506062 2.108708,1.691595 0.952255,0.930378 1.783067,1.828563 1.846242,1.995964 0.08116,0.215081 -0.05859,0.549264 -0.476388,1.139131 -0.482204,0.680815 -0.606083,1.016449 -0.67171,1.819958 -0.11323,1.38631 0.148252,2.170484 0.999858,2.998579 1.315089,1.278781 3.401675,1.426633 5.002606,0.354476 0.722279,-0.483719 0.91439,-0.547439 1.246857,-0.41354 0.21616,0.08706 1.139437,0.889431 2.051729,1.783048 1.183908,1.159674 1.658711,1.733459 1.658711,2.004499 0,0.285254 -0.934971,1.291913 -3.757878,4.045978 -2.066836,2.016435 -3.8403,3.66625 -3.941041,3.66625 -0.100741,0 -0.917093,-0.713668 -1.814119,-1.585922 -1.268673,-1.233653 -1.713899,-1.574444 -2.004389,-1.53424 -0.780536,0.108023 -0.524706,0.583307 1.264098,2.348454 l 1.749397,1.726262 -8.494997,8.256074 c -6.633642,6.447071 -8.582612,8.256074 -8.894864,8.256074 -0.294448,0 -0.850634,-0.445976 -2.109619,-1.691595 z M 39.44829,32.009227 c 0.106801,-0.103853 0.19419,-0.285278 0.19419,-0.403167 0,-0.282619 -2.708705,-2.992959 -3.117123,-3.119007 -0.377151,-0.116397 -0.818053,0.25177 -0.688896,0.575254 0.122588,0.307045 3.063324,3.135749 3.259943,3.135749 0.08673,0 0.245078,-0.08497 0.351886,-0.188829 z"
       id="path9857" /></g></svg>
