<?xml version="1.0" encoding="UTF-8" standalone="no"?>
<!-- Created with Inkscape (http://www.inkscape.org/) -->

<svg
   width="25.630402mm"
   height="61.329391mm"
   viewBox="0 0 25.630402 61.329391"
   version="1.1"
   id="svg5"
   xml:space="preserve"
   xmlns:inkscape="http://www.inkscape.org/namespaces/inkscape"
   xmlns:sodipodi="http://sodipodi.sourceforge.net/DTD/sodipodi-0.dtd"
   xmlns="http://www.w3.org/2000/svg"
   xmlns:svg="http://www.w3.org/2000/svg"><sodipodi:namedview
     id="namedview7"
     pagecolor="#ffffff"
     bordercolor="#000000"
     borderopacity="0.25"
     inkscape:showpageshadow="2"
     inkscape:pageopacity="0.0"
     inkscape:pagecheckerboard="0"
     inkscape:deskcolor="#d1d1d1"
     inkscape:document-units="mm"
     showgrid="false" /><defs
     id="defs2" /><g
     inkscape:label="Capa 1"
     inkscape:groupmode="layer"
     id="layer1"
     transform="translate(-89.849329,-92.912534)"><path
       style="fill:#e9631a;fill-opacity:1;stroke-width:6.68443"
       d="m 358.00708,581.75464 c -1.43321,-0.65371 -3.2062,-2.1194 -3.93998,-3.25709 -0.77423,-1.20039 -3.28279,-3.08134 -5.97722,-4.4818 -2.55368,-1.32731 -5.20247,-3.18898 -5.8862,-4.13705 -0.70414,-0.97638 -1.53257,-3.96595 -1.91068,-6.89509 -0.383,-2.96707 -0.67661,-30.1608 -0.68882,-63.79848 -0.0235,-64.79809 -0.40442,-59.19851 4.37353,-64.2966 2.74298,-2.92675 7.40078,-4.29053 14.65376,-4.29053 h 5.69763 l 0.21042,-37.56312 0.21043,-37.56311 1.91155,-1.91124 1.91155,-1.91124 19.53913,-0.2419 19.53913,-0.2419 1.59733,2.24324 c 2.27553,3.19568 2.6595,9.78694 2.69915,46.33377 l 0.0335,30.8555 h 5.13738 c 10.61696,0 15.6271,2.44385 18.08878,8.82336 1.17401,3.0425 1.25139,6.90973 1.25139,62.54076 0,32.61375 -0.25534,60.79571 -0.56743,62.62658 -0.73197,4.29411 -4.08204,8.07667 -8.92575,10.07806 -2.49385,1.03044 -4.18252,2.31909 -5.47025,4.1744 -3.69768,5.3275 -10.48241,5.3258 -15.29742,-0.004 l -2.48721,-2.75276 -15.68811,0.0106 c -8.62846,0.006 -15.99839,0.23851 -16.37762,0.51713 -0.37923,0.27862 -1.01944,1.12713 -1.4227,1.88559 -0.85327,1.60487 -6.15616,4.49007 -8.20414,4.46373 -0.77291,-0.01 -2.57791,-0.55294 -4.01111,-1.20664 z M 405.43094,395.77783 V 361.3024 L 389.917,361.10127 c -8.53266,-0.11063 -16.52234,-0.019 -17.75484,0.20362 l -2.2409,0.40476 v 34.45581 34.45582 l 17.75484,-0.18402 17.75484,-0.18401 z"
       id="path8049"
       transform="scale(0.26458333)" /></g></svg>
