<?xml version="1.0" encoding="UTF-8" standalone="no"?>
<!-- Created with Inkscape (http://www.inkscape.org/) -->

<svg
   width="25.928902mm"
   height="61.383301mm"
   viewBox="0 0 25.928902 61.383301"
   version="1.1"
   id="svg5"
   xml:space="preserve"
   xmlns:inkscape="http://www.inkscape.org/namespaces/inkscape"
   xmlns:sodipodi="http://sodipodi.sourceforge.net/DTD/sodipodi-0.dtd"
   xmlns="http://www.w3.org/2000/svg"
   xmlns:svg="http://www.w3.org/2000/svg"><sodipodi:namedview
     id="namedview7"
     pagecolor="#ffffff"
     bordercolor="#000000"
     borderopacity="0.25"
     inkscape:showpageshadow="2"
     inkscape:pageopacity="0.0"
     inkscape:pagecheckerboard="0"
     inkscape:deskcolor="#d1d1d1"
     inkscape:document-units="mm"
     showgrid="false" /><defs
     id="defs2" /><g
     inkscape:label="Capa 1"
     inkscape:groupmode="layer"
     id="layer1"
     transform="translate(-89.718653,-92.90933)"><path
       style="fill:#000000;stroke-width:0.264583"
       d="m 94.120097,153.74429 c -0.383427,-0.3016 -0.697139,-0.71605 -0.697139,-0.921 0,-0.20495 -0.327422,-0.45179 -0.727604,-0.54855 -0.400183,-0.0968 -1.056823,-0.40606 -1.459201,-0.68735 -1.5633,-1.09287 -1.517362,-0.53153 -1.517362,-18.54142 V 116.5355 l 0.600587,-0.89902 c 0.862736,-1.29144 2.097158,-1.82416 4.228059,-1.82465 l 1.785937,-4.2e-4 v -9.92187 c 0,-9.569098 0.01881,-9.94069 0.529167,-10.451042 0.49376,-0.49376 0.881944,-0.529167 5.801629,-0.529167 h 5.27246 l 0.54837,0.69714 c 0.53219,0.676561 0.54837,0.98424 0.54837,10.423029 v 9.72588 l 2.09881,0.0953 c 2.38055,0.1081 3.27435,0.57045 4.05235,2.09619 0.42552,0.8345 0.46264,2.20847 0.46302,17.13912 2.6e-4,14.42871 -0.0473,16.33243 -0.42909,17.13698 -0.4775,1.00627 -1.44443,1.78517 -2.54707,2.05175 -0.40018,0.0968 -0.7276,0.29813 -0.7276,0.44749 0,0.14936 -0.29224,0.56381 -0.64943,0.921 -0.48224,0.48223 -0.93398,0.64943 -1.7547,0.64943 -0.92041,0 -1.25133,-0.15487 -1.97863,-0.92604 l -0.87337,-0.92604 h -4.2511 c -3.5063,0 -4.251102,0.0662 -4.251102,0.37767 0,0.65374 -1.325433,1.47441 -2.38125,1.47441 -0.597861,0 -1.261816,-0.21619 -1.684111,-0.54837 z m 13.061193,-49.06725 v -9.134371 l -4.56406,0.07239 -4.564064,0.07239 -0.06962,9.061981 -0.06962,9.06197 h 4.633684 4.63368 z"
       id="path6982"
       inkscape:export-filename="MOCHILA.svg"
       inkscape:export-xdpi="96"
       inkscape:export-ydpi="96" /></g></svg>
